Coordinates
version=1
nRows=12
nColumns=33
inDegrees=yes

Units are S.I. units (second, meters, Newtons, ...)
Angles are in degrees.

endheader
time	ground_thorax_rot_x	ground_thorax_rot_y	ground_thorax_rot_z	ground_thorax_tx	ground_thorax_ty	ground_thorax_tz	clav_prot_r	clav_elev_r	scapula_abduction_r	scapula_elevation_r	scapula_upward_rot_r	scapula_winging_r	shoulder_elv_r	plane_of_elev_r	axial_rot_r	elbow_flexion_r	pro_sup_r	wrist_flex_r	wrist_dev_r	clav_prot_l	clav_elev_l	scapula_abduction_l	scapula_elevation_l	scapula_upward_rot_l	scapula_winging_l	shoulder_elv_l	plane_of_elev_l	axial_rot_l	elbow_flexion_l	pro_sup_l	wrist_flex_l	wrist_dev_l
      2.34000000	     -2.50881775	      5.42040627	     11.72811835	     -0.11119853	      1.02536178	      0.01342114	     14.47386444	    -14.97699129	     33.57567119	    -12.96989107	     15.77582714	     -7.58178356	     -6.55919154	    -57.18798593	    118.69655619	    -44.58166599	   -149.64985885	      2.55052288	      0.92165041	     20.52949889	     -9.81089540	    -30.09149065	     -8.01517937	    -26.58214565	      8.27732325	     55.29274267	     -1.40041262	      8.76622169	     25.88434622	     22.17453931	     13.23726796	    -10.16766753
      2.35000000	     -2.51190001	      5.43482667	     11.85010064	     -0.11153782	      1.02560867	      0.01343204	     14.35807125	    -15.34925823	     32.89520747	    -13.06491971	     15.00779583	     -7.11269357	     -7.03888790	    -57.53763148	    118.05607139	    -45.90051538	   -151.74250773	      2.94362843	      0.86125875	     20.26520510	     -9.78880887	    -29.64677184	     -8.16134271	    -26.82376525	      8.01317869	     55.55577153	     -1.98809600	      8.54868626	     27.33577189	     23.64681320	     13.40705025	    -10.90555955
      2.36000000	     -2.37496806	      5.33001615	     11.84562074	     -0.11174739	      1.02532463	      0.01346266	     14.15071433	    -15.08683104	     32.38596633	    -12.74251267	     14.69967706	     -7.07942016	     -7.41687598	    -57.66332348	    117.98617479	    -47.10744208	   -152.06223079	      3.24852127	      0.76491651	     20.06562982	     -9.53448206	    -29.32959192	     -8.50145016	    -27.05011530	      7.86330549	     55.42831039	     -2.19155290	      9.04386301	     28.56579505	     23.63623073	     13.33966886	    -11.17070876
      2.37000000	     -2.36445317	      5.32901759	     11.96232158	     -0.11208419	      1.02560707	      0.01347325	     14.05621607	    -15.44367776	     31.74448342	    -12.81783138	     13.92891425	     -6.63763974	     -7.97277064	    -58.07287086	    117.28883791	    -48.46544518	   -154.31410673	      3.71883687	      0.68155091	     19.80452125	     -9.53654942	    -28.88910504	     -8.65107521	    -27.34336704	      7.59325467	     55.74570739	     -2.88634546	      8.73393832	     30.11032144	     24.42467698	     13.61441873	    -11.65868745
      2.38000000	     -2.22150104	      5.20965987	     12.11337595	     -0.11230744	      1.02536667	      0.01342266	     13.82874800	    -15.24757040	     31.15920849	    -12.52980483	     13.55172070	     -6.53410010	     -8.48400348	    -58.41412232	    117.21817651	    -49.67195122	   -155.01811506	      4.06001674	      0.57138165	     19.56906828	     -9.26291602	    -28.51418276	     -9.04701080	    -27.64554736	      7.40848743	     55.56341967	     -3.20748990	      9.12595712	     31.43270315	     24.42177151	     13.64230059	    -11.93028433
      2.39000000	     -2.14114454	      5.11298138	     12.08125498	     -0.11255371	      1.02517419	      0.01356006	     13.69126832	    -15.04978223	     30.66355108	    -12.20698375	     13.08622430	     -6.47632164	     -8.94112612	    -58.54715282	    117.00204872	    -51.10163185	   -155.64115163	      4.42603145	      0.49149748	     19.37993149	     -9.03401835	    -28.21209630	     -9.37749828	    -27.89559078	      7.25269730	     55.62111049	     -3.63100025	      9.35074358	     32.79429093	     24.35932158	     13.65468558	    -12.20230689
      2.40000000	     -2.17452060	      5.11013520	     12.09286686	     -0.11284375	      1.02581092	      0.01346448	     13.63951242	    -15.67739587	     30.05770492	    -12.49875201	     12.26284868	     -5.88265427	     -9.68140277	    -59.15811404	    115.96096425	    -52.54915255	   -158.87874915	      4.96217040	      0.38291909	     19.06434113	     -9.10815633	    -27.67735720	     -9.44094072	    -28.13515523	      6.92816267	     56.11895950	     -4.58154156	      8.88344336	     34.47679515	     24.45795310	     14.31218181	    -12.47875545
      2.41000000	     -2.00291912	      5.05258279	     11.95500885	     -0.11295527	      1.02560396	      0.01339772	     13.41613720	    -15.33499729	     29.55056983	    -12.10947915	     11.99064669	     -5.89437237	    -10.04782067	    -59.38447955	    115.90073149	    -53.86191452	   -159.16762434	      5.28201890	      0.28721967	     18.85220745	     -8.78061620	    -27.34413693	     -9.84294213	    -28.34721502	      6.77904936	     55.96205866	     -4.75922214	      9.39837063	     35.80900020	     24.25869830	     14.24996275	    -12.69974705
      2.42000000	     -1.86818548	      4.93544878	     12.00906924	     -0.11317214	      1.02532824	      0.01343910	     13.24680012	    -15.04133697	     29.03164121	    -11.70716376	     11.55795745	     -5.88049479	    -10.57013029	    -59.70050447	    115.82520192	    -55.31916256	   -159.57927498	      5.64149811	      0.20192971	     18.65355522	     -8.45703858	    -27.03363420	    -10.29572993	    -28.67275102	      6.62276030	     55.86895831	     -5.19174571	      9.65813448	     37.27993387	     24.04564126	     14.25388591	    -12.96472077
      2.43000000	     -1.99257605	      4.84249781	     12.21176720	     -0.11358138	      1.02609400	      0.01344612	     13.26577917	    -15.85287196	     28.40496691	    -12.07506651	     10.49776206	     -5.18252578	    -11.64084857	    -60.45842478	    114.63100628	    -56.92379911	   -163.32143153	      6.23541023	     -0.23712838	     18.30015188	     -8.53741016	    -26.43509921	    -10.36102806	    -28.92328778	      6.26337572	     56.46300637	     -6.59968057	      8.95196848	     39.07008042	     23.34394913	     15.28324554	    -13.04755991
      2.44000000	     -1.81341870	      4.77081802	     12.07808202	     -0.11370033	      1.02589171	      0.01335075	     13.02446641	    -15.48496765	     27.88575103	    -11.66675188	     10.24876261	     -5.19952344	    -12.08137852	    -60.83525914	    114.65482426	    -58.31172291	   -163.61177029	      6.58291352	     -0.33354893	     18.08398625	     -8.15088515	    -26.09691645	    -10.83559198	    -29.17096172	      6.10963261	     56.27546926	     -6.82237833	      9.42854879	     40.49628360	     23.07962162	     15.23433173	    -13.26440078
      2.45000000	     -1.66970789	      4.65566906	     12.12004094	     -0.11389903	      1.02563687	      0.01334957	     12.84881667	    -15.17134679	     27.35969355	    -11.23889552	      9.81178912	     -5.19105539	    -12.63137229	    -61.25671180	    114.61651492	    -59.82248170	   -163.99714855	      6.96504730	     -0.46297000	     17.88238469	     -7.77683236	    -25.78505748	    -11.34868981	    -29.52207254	      5.94934954	     56.16175492	     -7.30478951	      9.61925655	     42.05119885	     22.78505605	     15.26372220	    -13.52193460
